<?xml version="1.0" encoding="UTF-8"?>
<svg xmlns="http://www.w3.org/2000/svg" version="1.1" viewBox="0 0 571.9 595.3">
  <defs>
    <style>
      .cls-1 {
        fill: #fff;
      }
    </style>
  </defs>
  <!-- Generator: Adobe Illustrator 28.7.1, SVG Export Plug-In . SVG Version: 1.2.0 Build 142)  -->
  <g>
    <g id="Layer_1">
      <path class="cls-1" d="M539.5,250l-1.5.4h0s0,0,0,0l1.5-.4h0c-.5-2-1-4-1.5-6.1v-.3c0,0-1.1-1.6-1.1-1.6-1-1.7-2.2-3.6-3.3-5.5-.2-.4-.4-.8-.6-1.3-.3-.7-.6-1.5-1.2-2.3-1.2-1.6-2.5-3.2-3.7-4.7-.6-.7-1.2-1.4-1.7-2.1-2.2-2.8-4.5-5.6-6.7-8.4l-3-3.7c-.2-.2-.4-.4-.6-.5-.9-.4-1.7-.6-2.3-.8-.8-.2-1-.3-1.3-.6-.9-1-2.1-1.6-3.2-2.1-.2,0-.4-.2-.6-.3-.8-.4-1.5-.7-2.3-1-.4-.1-.8-.3-1.2-.4-.7-.3-1.5-.6-2.3-1-1.7-.8-3.5-1.5-5.4-2.1-4.6-1.3-9.8-1.4-15.7-.2-1.8.4-3.7.7-5.5,1.1-3.3.7-6.7,1.3-10.1,2-.6.1-1.3.2-2,.2-1.3,0-2.8.2-4.1.8-4.6,2.1-8.6,4.8-11,7.4l-.2.3v.2c-.6,1.1-1,2.2-1.4,3.1h0c-.8,2.1-1.5,3.7-2.2,5.2-2,3.9-4.1,8.6-3.9,14,.1,2.2.5,4.5,1.1,6.8.5,1.8,1.5,4.6,2.4,7,.5,1.4,1.4,3.7,1.6,4.4,0,.3,0,.6.2.9,2.7,5,6.8,8.5,11.1,11.9-1.5.6-3.2.7-4.9.8-4.2.2-8.1.8-11.8,1.8-3.1.9-6.2,1.8-9.3,2.6l-2.7.8c-3,.9-6.1,2-8.7,3-.4.1-.7.3-1.1.4-1.8.6-3.7,1.3-5.3,3.1-1,1.1-2.1,2.1-3.4,3.2-.2.2-.4.4-.6.6-.3-.3-.7-.5-1-.7-1.4-1-2.8-2-3.7-3.1-3.7-4.4-7.1-9.3-10.2-13.5-1-1.4-1.9-2.9-2.8-4.4-.7-1.1-1.4-2.3-2.1-3.4-.5-.7-1-1.3-1.5-1.8-.5-.6-1-1.1-1.3-1.6-.8-1.5-1.6-2.9-2.4-4.4-2.5-4.4-5.1-9-6.8-13.8-.3-.9-.6-1.8-1-2.7-.9-2.6-1.9-5.2-2.9-7.8-1.3-3.2-2.6-7.1-2.8-11.3,0-.6-.2-1.2-.3-1.6,0-.2-.1-.4-.2-.7-.1-.9-.3-1.7-.4-2.6h0c-.4-2.3-.7-4.6-.9-6.8-.1-2.1,0-4.2,0-6.3,0-1.7,0-3.4,0-5.2,0-2.7,0-5.3,1.7-7.5l5.1-1c4-.8,8-1.6,12.1-2.4.4,0,.8-.2,1.2-.3.8-.2,1.7-.5,2.6-.6,4.2-.8,7.8-2.8,11.3-4.6,1.4-.7,2.7-1.4,4.2-2.3l2-1.1c.3-.2.5-.4.7-.7.9-1.5,2.6-2.4,4.6-3.4,1.3-.7,2.7-1.4,4-2.3l.5-.3c1.9-1.4,3.9-2.9,4.4-5.3,3.9-4.3,5.2-9,6.3-14.4.2-.3.3-.7.4-1,0-.3.2-.6.3-.8.2-.3.4-.7.4-1.1,0-2,.5-3.9.9-5.5.1-.5.3-1,.4-1.6h0c.7-2.5,1.4-5,1.2-7.8-.3-5.3-1.9-10.3-3.3-14.7-1-3.1-2.2-5.7-3.6-8-2.9-4.5-7.1-7.9-11.1-10.9-4.2-3.1-8.9-5.1-13.4-6.8-2.1-.8-4.5-1.5-6.6-1-4,1-7.5,2.3-10.3,4-2,1.2-3.6,2.8-5.1,4.4-.7.7-1.4,1.4-2.1,2.1-1,.9-2.1,1.9-3.2,2.8h-.1c-.9.9-1.9,1.7-2.8,2.6-.5.5-1.2,1-1.6,1.8-.7,1.3-1.9,3-2.3,3.5h0c-.4.3-.7.8-.7,1.3-.1,1.5-.3,2.9-.4,4.5-.3,2.9-.5,5.8-.7,8.7-.3,5,1.5,9.7,5.8,14.6,3.2,3.7,7.4,5.9,11.7,8.1h.2c.1.1.2.2.4.3-.6,1.4-1.8,2.5-3,3.8-1.1,1.1-2.2,2.2-3.2,3.7l-12.6,22.5c-.1.2-.2.4-.2.7,0,.2,0,.5-.1.9v.2c-1.5.8-3,.5-5.1,0-1-.2-2.2-.5-3.4-.6-1.5-1.3-3.4-1.8-5.3-1.3-.2-.1-.4-.3-.6-.4-1-.6-2-1.3-3.1-1.5-3.2-.7-6.3-1.3-9.3-1.9h-.3c-.8-.2-1.5-.4-2.3-.5-2.8-3-6-3.9-8.9-4.4-.2,0-.4,0-.6,0-.2,0-.4,0-.5,0-2.2-1.1-4.5-2.2-6.7-3.5-5.7-3.2-11.7-6.9-16.8-11.9-.3-.3-.6-.6-.9-.8-.2-.1-.3-.2-.5-.4l-.5-.5c-1.7-1.5-3.4-3.1-5.1-4.6,0,0-.2-.3-.3-.4-.2-.4-.5-.9-1-1.3-.8-.7-1.6-1.3-2.4-1.9-1.2-.9-2.4-1.9-3.5-2.9-1-1-2-2-2.9-3.1-1-1.1-2.1-2.3-3.2-3.4-1.5-1.4-3.1-2.6-4.6-3.8h-.1c-.5-.5-1-.9-1.5-1.3-.2-.3-.5-.4-.9-.6,0-.6,0-1.3,0-1.9h0c0-2.8,0-5.3.1-7.8,0-.8,0-1.8,0-2.8,0-.7,0-2.1,0-2.6.2-.3.2-.6.2-1,0-1.1,1-7.6,1.9-11.9.2-.8.2-1.7.1-2.5l-.5-4.3c-.5-4.4-1-8.9-1.7-13.3-.2-1.6-.6-3.1-.9-4.6-.3-1.3-.6-2.7-.8-4.1-.6-3.8-2-7.5-4.5-11.7-.7-1.1-1.4-2.3-2.1-3.4-.8-1.3-1.6-2.7-2.4-4-2.3-3.9-4.8-7.6-9.4-9.4h-.1c-.1,0-.2-.1-.3-.2-2.5-2.9-5.9-4.1-9-5.2-1.4-.5-2.8-.9-4-1.6-2.2-1.1-4.5-1.5-6.8-2-.9-.2-1.9-.4-2.8-.6-3.1-.8-6.7-1.5-10.6-1.2-.9,0-1.8.1-2.6.2-1.5,0-3.1.2-4.7.4h-.5c-1.8.3-3.9.6-5.8,2.2-1.9,1.6-3.7,2.7-5.4,3.5-3.5,1.5-6.3,3.4-8.7,5.9-.6.7-1.2,1.4-1.8,2-.6.7-1.1,1.3-1.7,1.9h-.1c-2.5,2.7-5.1,5.3-6.7,8.9-.3.6-.5,1.2-.7,1.9-.3,1-.6,1.8-1,2.4-2.3,3.2-3.3,7.1-2.8,11.1.4,3.3,1.3,6.9,2.7,11.3.6,1.7,1.5,3.2,2.3,4.7.4.6.8,1.3,1.1,2,.2.4.4.8.6,1.3.4.9.9,1.9,1.5,2.7,2.3,3.1,4.8,6.2,7.1,9.1,1,1.2,2.1,2.5,3.5,3.6,1.1.8,2.2,1.3,3.3,1.9.4.2.9.4,1.3.7l1.1.6v-.2c.4,0,.7.1,1.2.2,2.1,2.5,7.4,2.5,11,2.5.8,0,1.7,0,2,0,2.8.5,5.3-.2,7.7-2.2,5.6-1.4,8.8-6.4,10.9-9.8.4-.6.7-1.2,1.1-1.7h0c.4-.7.6-1.4.7-2.2h0c0-.2,0-.3,0-.4.3.2.7.4,1,.7.7.9,1.4,1.5,2.1,1.9.5.6,1,1.3,1.6,1.9,1.3,1.5,2.5,3,3.5,4.5.7,1,1.3,2,1.9,3.1.6,1.1,1.2,2.2,2,3.2,3.6,5.3,8.4,9.4,13,13.4l1.8,1.5h0c.1.2.5.7.6,1.4,0,.1,0,.2,0,.3-.2.6,0,1.2.3,1.7l.9,1.1c-.7.9-2,2.2-2.6,2.6-.6.2-1.1.6-1.2,1.3-.6,2.6-2.9,6.6-3.6,7.6-.2.1-.5.3-.6.5-.5.6-.9,1.3-1.4,1.9l-.8,1c-.4.5-.4,1.1-.2,1.6,0,.1.1.2.2.4-.1.3-.4.7-.6.8-.2.1-.3.3-.4.4-.2.2-.5.5-.9.9-1.4,1.4-3.8,3.8-4.9,5.5-1.2,1.7-2.7,3.2-4.3,4.8l-.5.5c-.2.2-.6.5-1.1.7-.5.3-1.1.6-1.7,1.1-2.5,2.3-5.6,4.1-9.4,5.5-3.2,1.2-5.6,3.2-8,5.2-.6.5-1.2,1-1.9,1.5,0,0-.1,0-.2.1-2.7.8-4.7,1.8-6.4,2.9-3.2,2.2-6.8,3.2-9.8,4-.9.2-1.8.4-2.7.6-2.2.5-4.5,1.1-6.7,1.7-.8.2-1.4.6-2,.9-.5.3-.9.5-1.2.6-1.5.4-3,.7-4.6,1.1-.5,0-.9.2-1.4.3-1.3.3-1.9-.1-2.3-.6-.3-.4-.7-.7-1-1.1-.7-.8-1.5-1.7-2.4-2.5-5.3-4.4-10.2-8.2-14.9-11.9-1.3-1-2.7-1.8-4.1-2.6-.6-.3-1.1-.7-1.7-1-1.3-.8-2.6-1.8-3.9-2.7-1.2-.9-2.4-1.8-3.8-2.7-3.1-1.9-6.3-3.7-9.4-5.4l-2-1.1c-.7-.4-1.4-.8-2.1-1.2-2.8-1.5-5.7-3.1-8.7-4.5-2.9-1.3-5.9-2.4-8.8-3.4h-.2c-.9-.4-1.9-.7-2.8-1.1-1.4-.5-2.9-1-4.5-1.4-.9-.2-1.8-.4-2.7-.7-1-.2-2-.5-2.9-.7-.6-.2-1.3-.5-2-.7-1.3-.5-2.8-1.2-4.4-1.2-1.8,0-3.7-.4-5.6-.7-3.3-.5-6.8-1.1-10.4-.5-1.1.2-2.4.1-3.7,0-.6,0-1.2,0-1.8,0h0c-.4,0-1,0-1.6,0-2.3.3-4.6.6-6.9.9l-1.2.2c-3.5.5-7.1.9-10.5,2.9,0,0-.3.1-.5.2-.3,0-.6.2-.9.3-.6.3-1.3.5-1.9.8-1.7.7-3.4,1.4-5.1,2.5-2.1,1.3-3.9,2.8-5.8,4.3h0c-.6.6-1.3,1.1-1.9,1.6-.4.3-.8.7-1.1,1-.3.3-.8.8-1,.9-3.2.7-4.8,2.9-5.9,4.7l-.9,2.9c-.6,2.1-1.2,4-1.8,6-.4,1.1-.8,2.3-1.2,3.4-.3.9-.6,1.7-.9,2.6-.3.7-.4,1.5-.6,2.2v.5c-.3.7-.5,1.4-.7,2.1-.8,2.8-1.7,5.9-.7,9.4.2.8.3,1.7.4,2.7,0,.3,0,.7,0,1,.3,4.5,1.3,8.5,3,12.2.4.8.7,1.6,1.1,2.5.8,1.8,1.6,3.7,2.5,5.5.3.6.6,1.2.9,1.8,1.1,2.4,2.3,4.8,4,6.9,4.7,5.6,9.5,9.7,14.9,12.4.3.2.7.3,1.1.5.4.2.9.3,1,.5,2.3,2.4,5.1,3.6,7.9,4.8.4.2.8.3,1.2.5,2.7,1.2,5.4,2.2,8.2,2.8,2.6.6,5.2,1.1,7.8,1.5.8.1,1.6.3,2.5.4.7.1,1.4-.1,1.7-.3,0,0,.1,0,.2,0,1.2-.3,2.3-.8,3.3-1.2,1.7-.7,3.5-1.3,5.3-1.5,2.5-.3,6.2-1.1,8.4-4.7,1.2-2,2.7-3.8,4.4-5.8.7-.8,1.4-1.7,2-2.5.2-.2.3-.4.3-.7.3-1,.5-2.2.8-3.3.2-.7.4-1.4.6-2.1.9-3.1,1.8-6.3,1.2-9.9,0-.5-.2-1.1-.3-1.6-.4-2.6-.9-5.6-2.8-8.2-1.2-1.6-2.2-3.3-3.3-5.2-.1-.2-.2-.4-.3-.6,4.5.3,9,.6,13.4.9l6.8.5c1.3,0,2.6.2,4,.3,1,0,2.1.2,3.2.3,2.5.2,5.2.5,7.8.2,4.3-.6,8.5-.8,13-.8,1.2,0,2.4,0,3.7,0h2.1c.2,0,.4,0,.6,0l1.2.4c.5.2,1.1,0,1.6-.2,0,0,.2-.1.3-.2l6.8-1.2c3.1-.5,6.1-1.1,9.2-1.6l1.2,1.5c1.3,1.8,2.6,3.4,3.8,5.1.4.5.8,1,1.2,1.5.9,1.2,1.8,2.4,2.6,3.6,1.2,1.9,2.3,4,3.6,6.8,1.8,3.8,3.6,7.8,5.4,11.8,1.8,4,2,7.7.8,11.4-.5,1.4-.6,3-.6,4.3,0,.4,0,.8,0,1.2,0,1.2-.2,2.5-.2,3.7,0,1.4-.1,2.8-.3,4.1-.1,1.6-.3,3.2-.6,5,0,.7-.2,1.5-.3,2.3,0,.1-.1.2-.2.4-.3.6-.7,1.6-.9,2.7-.7,4.3-1.6,8.8-4.2,12.7-.5.7-.8,1.4-1.1,2.2-.3.9-.5,1.7-.7,2.6-.4,1.6-.8,3.2-1.4,4.7-.3.7-.9,1.5-1.6,2.3-.2.3-.5.6-.7.9,0,0-.1,0-.2.1-.3.2-.7.5-1,1-2.2,3.3-4.8,7.2-7.4,11.2-.5.8-1.1,1.7-1.6,2.6-.8,1.3-1.6,2.7-2.4,3.8-1.2,1.6-2.7,3.1-4.2,4.5l-.2.2c-.5.5-1,.9-1.6,1.3-.5.4-1.1.9-1.7,1.4-.8.7-1.5,1.5-2.2,2.2-.6.6-1.3,1.3-1.9,1.9-1.1,1.1-1.9,1.5-2.5,1.4-1.3-.9-2.5-1.8-3.8-2.7-3-2.1-5.8-4.1-9-5.7-5.6-2.8-11.7-5-18.7-6.7-2.4-.6-4.4-1.1-6.2-1.6-.5-.1-1.1-.3-1.6-.6-.9-.3-1.9-.7-2.9-.9-2.3-.4-4.7-.7-7.1-.8-.9,0-1.9,0-2.7.2-.6,0-1.3.1-1.9.1-1.2,0-2.4-.1-3.7-.2-2.3-.2-4.6-.3-6.9-.1-2.8.3-5.5.9-8.1,1.6-1,.3-2.1.5-3.1.7-.5.1-.9.3-1.2.5-.1,0-.2.1-.3.2-.1,0-.2,0-.4.1-.2,0-.5.2-.5.2-3.6-.3-7,.9-10.2,3.6-1.8,1.6-3.9,2.3-6.6,2.8-3.5.7-5.8,2.1-7.4,4.4-1.6,2.4-3.5,4.2-5.8,5.4-1.3.7-2.3,2.1-3,3-.7.9-1.3,1.8-1.8,2.6-.8,1.2-1.6,2.4-2.5,3.4-.9,1.1-2,2.2-3,3.2-1,1-2.1,2.1-3,3.2-.8.9-1.1,2-1.4,2.9,0,.3-.2.5-.2.8-.2.5-.3,1-.4,1.5,0,.4-.2.7-.3,1.1-.3.9-.6,1.8-1,2.7-.7,2-1.5,4-1.9,6.2-.1.7-.2,1.4-.3,2-.2,1.4-.3,2.6-.9,3.6-.5.8-.4,1.7-.3,2.4l.3,1.6c.3,1.8.6,3.6,1,5.4.3,1.2.6,2.3.9,3.5.4,1.4.8,2.9,1.1,4.4.3,1.4.4,2.9.6,4.4.1,1.2.3,2.4.5,3.7.2,1.2.5,2.3.9,3.4h0c0,.3,0,.4.1.5-.1.5,0,1,.2,1.4.5.9,1.1,1.7,1.6,2.6,0,1.5,0,3.2.7,4.8.8,1.6,2,3.3,3.5,5.1l1.4,1.6c2.6,3,5.4,6.2,8.4,9,.3.3.6.6.9.9h.1c2.4,2.4,4.9,4.8,8.3,6.2,2.2.9,4.3,2.2,6.6,3.7,3.8,2.5,7.9,4.9,12.6,6.4.6.2,1.3.6,2,1,.4.2.8.5,1.3.7.2.1.4.2.7.2.4,0,.8,0,1.2,0h.1c.9,0,1.8,0,2.6.2,6.2,1.2,12.6,1.8,19.1,1.8,1.1,0,2.2-.2,3.1-.6,2.6-1.2,5.3-2.5,7.9-3.8l.3-.2c1.3-.6,2.5-1.2,3.8-1.8h0c.2-.1.4-.3.5-.3,2.7,0,4.8-1.2,6.7-2.4.5-.3.9-.6,1.4-.8.6-.3.9-1,.9-1.6,0-1.3.7-1.9,2.1-2.8.5-.3.9-.6,1.4-1,.3-.3.5-.6.6-1,.5-3,1.1-5.6,2.5-7.8,2.5-3.8,3.9-7.4,4.4-11,.5-3.6.5-7,.2-10.1,0-.7-.1-1.5-.2-2.2-.1-2.3-.2-4.9-1.6-7.4-.2-.4-.3-1.1-.4-1.9,0-.5-.1-1.1-.2-1.8,0-.3-.2-.6-.4-.9-1.2-1.3-2.2-3-3.3-4.7-2-3.2-4-6.5-7.6-8.7-1.3-.8-2.6-1.7-3.9-2.6-3.1-2.2-6.4-4.4-10.2-5.7,0-.2.2-.3.3-.4.5-.4,1.5-.4,2.2-.3.3,0,.6,0,.9-.1l2.9-1.2c1.7-.7,3.3-1.3,4.9-2,.1,0,.2,0,.4-.1l15.2-6.4h.1c.4-.3.9-.5,1.4-.8,1.1-.6,2.2-1.2,3.4-1.7,1.3-.6,2.6-1.2,3.9-1.7l1.4-.6c.2,0,.3-.2.4-.3.8-.5,4.9-2.5,6.5-3.2.4.3.7.5,1.1.8,1.2.9,2.4,1.7,3.3,2.7,1.1,1.2,2.2,2.5,3.1,3.9.5.7,1,1.3,1.5,2,.4.5.8,1,1.3,1.6.6.8,1.3,1.5,1.8,2.3.4.6.8,1.2,1.2,1.9.3.6.6,1.1,1,1.7.4.7.9,1.3,1.3,1.9.7,1,1.5,2,2,3.1,1.3,2.9,3,5.5,4.8,7.1l7.5,14v.3c.2.6.3,1.4.5,2.1.2.7.5,1.4.7,2.1.3.7.5,1.5.7,2.2.6,2,1.1,4,1.7,5.9v.2c.7,2.4,1.4,4.8,2.1,7.3.4,1.4.8,2.7,1.3,4.2.6,1.7,1.1,3.5,1.6,5.2.4,1.6.8,3.4,1,5.7.2,1.8.4,3.6.5,5.4.1,1.2.2,2.4.3,3.6.1,1.3.3,2.5.5,3.9,0,.2,0,.4,0,.6-6.1,3.1-14.5,7-15.9,7.4-.4,0-.9.2-1.2.5-.8.8-1.6,1.6-2.5,2.4h0c-1.5,1.6-3.1,3.2-4.8,4.7-.5.5-1.1,1-1.7,1.6-1.5,1.5-3,3-4.7,4-3.5,2.2-5.1,5.4-6.4,9.5-1.8,2.1-3,4.3-3.5,6.8-.2,1.2-.8,2.4-1.4,3.6-.4.8-.8,1.7-1.1,2.6-.4,1.1-.7,2.3-1,3.3-.5,1.7-1,3.4-1.8,4.9-1.8,3.2-2.3,6.6-2.8,9.8-.3,1.9-.6,3.8-1.1,5.7-1,3.2-1,6.5-1.1,9.8,0,.9,0,1.8,0,2.6,0,2.1-.1,4.8.5,7.4.9,3.8,2,7.7,3.4,11.5.6,1.7,1.5,3.3,2.4,4.8.4.7.8,1.3,1.1,2,0,.2.1.3.2.5.1.3.2.6.4.8.9,1.7,1.8,3.4,2.7,5.1l1.5,2.8c.7,1.3,1.4,2.6,2.1,3.9.7,1.3,1.5,2.5,2.2,3.5.4.5.8.9,1.2,1.3.2.2.4.4.6.6,2.2,2.5,4.7,4.7,6.4,5.7l1.5,1.3c3.1,2.6,5.4,4.6,7.8,6.6.5.4,1,.5,1.3.6l8.6,3.1c1,.3,1.9.7,3,1,2.4.8,4.8,1.7,7.1,2.6,1.2.5,2.4,1,3.6,1.6.2.1.4.2.6.3,0,.2.2.4.3.6.3.4.8.6,1.3.6,1.6,0,3.3.2,4.9.3,1.8.2,3.6.4,5.5.4s4.8-.3,6.8-1.1c.4-.1.7-.2,1.1-.4,1.9-.6,3.9-1.3,5.3-2.5l8-2.3h0c2.2-.8,8.5-6.9,8.6-7,.3-.3.6-.5,1.1-.8,1.2-.8,2.3-1.5,3.5-2.2h.2c.2-.3.4-.5.6-.7,1.7-1.4,3.5-2.9,5.6-4.5.2-.2.4-.5.5-.7,1-2.6,1.5-5.1,1.9-6.9.2-.8.4-1.8.5-2v-.3c.1,0,1.1-5.8,1.1-5.8.4-1.6,1.7-10.4,1.2-15.3-.2-2.3-.7-4.5-1.2-6.7-.2-1.1-.5-2.4-.8-3.6-.3-1.8-.7-3.7-1.3-5.7-.2-.7-.4-1.3-.7-1.9-.1-.2-.2-.5-.3-.7-.2-.7-.5-1.4-.7-2-.5-1.5-1-3.2-1.9-4.7-1.5-2.6-3.6-4.6-5.7-6.5-1.1-1-2.2-2-3.2-3.1-2.4-2.7-4.7-4.8-8.1-6h-.2c-4.5-1.7-9.1-3.3-14.2-3.3-.9,0-2.3,0-4,0-5.2,0-9.7-.2-11.3,0-2.6.4-5.2.9-7.7,1.4-1,.2-2.1.4-3.1.7-.5.1-1,.2-1.6.4.6-1.1,1.2-2.3,1.7-3.2h.2c0,0,1.2-4.3,1.2-4.3.3-1.1.6-2.2.9-3.2,0,0,0-.2,0-.2,0-.2.3-.7.5-1.1,1-2.2,1.3-3.1,1.3-3.8,0-.4,0-.8.1-1.3,0-1,.2-2,.4-2.9.1-.5.2-1,.4-1.5.7-2.6,1.4-5.5.4-8.6,0,0,0,0,0,0,1.4-3.1,1.7-6.2,1.9-9.4.1-1.8,0-3.7-.1-5.5,0-.4,0-.8,0-1.3,0,0,0,0,0,0,1.6-.3,3.2-.6,4.8-.8.7-.1,1.5-.2,2.2-.4.5,0,.9-.2,1.4-.3.8-.2,1.7-.4,2.4-.4,1,0,2.7-.3,4.7-.6,3.1-.4,9-1.3,10.3-.8,1.1.3,2.2.2,3.1.1,3.2-.3,6.4,0,9.6.5,1.2.2,2.5.3,3.7.4,1.1.1,2.3.4,3.5.6,1.8.4,3.8.8,5.8.7,2.5-.1,4.9.5,7.4,1.1,2.1.5,4.3,1,6.6,1.2,1.5,0,3,.3,4.5.6,2.8.5,5.6,1,8.4,1.5h.6c.2.4.4.6.7.7l8.9,4c.1.4.2.9.3,1.3v.2c.4,4.8.7,9.7,2.2,14.6h0c0,.2,0,.4,0,.6,0,3.5.5,6.8,1.9,9.9.2.4.3.7.5,1.1v.2c.9,1.9,1.8,3.9,2.2,5.8.5,2.4,1.1,4.9,3.4,6.8,0,0,.1.2.2.4,1.2,3.9,3.5,7.4,7,10.5.4.4.9.8,1.3,1.3h0c.2.3.4.5.6.7.8.8,1.7,1.7,2.5,2.5h.1c1.9,2.1,3.9,4.1,5.9,6.1.5.5,1.1.8,1.6,1,.3.1.5.3.7.4l1.3.9c2,1.4,4,2.9,5.9,4.4.8.7,1.7,1.5,2.4,2.2,1.9,1.8,4,3.8,6.9,4.9,2.4.9,5.1,2,6.9,3.6,3,2.7,6.3,2.5,8.9,2.4h.6c2-.1,4-.4,5.9-.7,1.2-.2,2.4-.3,3.5-.4,1-.1,2.1-.2,3.1-.2,1.1,0,2.2-.1,3.3-.2,5.6-.5,10-3.3,14.3-6l1.4-.9h.2c1-.6,2.1-1.2,3.2-1.9.5-.3.9-.7,1.3-1,.4-.3.8-.6,1.1-.9,4.4-2.7,6.2-7,7.5-10.9.7-2,1-4.3,1.1-6.8.1-4.2,0-8.4,0-12.5v-3.3c0-.7-.3-1.2-.4-1.7,0-.1,0-.2-.1-.4l-1-3.6c-.9-3.2-1.9-6.4-2.9-9.6-1-3.1-2.5-5.6-4.7-7.8-1.4-1.4-2.8-2.8-4.1-4.3h0c-.8-.9-1.6-1.8-2.4-2.6-.3-.3-.5-.5-.8-.8-.8-.9-1.6-1.8-2.8-2.5-1-.5-2-1.1-3-1.6-3.9-2.2-8-4.4-12.8-5.3-.3,0-.6,0-.9,0-.3,0-.5.2-.9.3-1.7.6-2.8,1-4,.4-.7-.3-1.4-.2-1.8,0,0,0,0,0-.1,0l-2.1.3c-1.8.2-3.7.5-5.6.8h-.2c-1.2.2-2.5.4-3.8,1-1.6.7-3.1,1.7-4.6,2.7-.8.5-1.8,1.3-2.4,2.3-.9,1.5-1.7,2.9-2.6,4.6-.4.7-.8,1.4-1.2,2.2l-.2.3v.3c-.3,1.7-.6,3.7-1,6-.2-.2-.4-.4-.5-.6-1.8-1.9-3.9-4.1-5.9-6.1-1.7-1.7-3.8-3.4-6.2-5.2-1.2-.8-2.4-1.4-3.6-2l-.9-.4c-1-.5-2-1-3-1.4l-.6,1.4.5-1.4c-1.1-.5-2.3-1-3.4-1.6-.6-.3-1.2-.7-1.7-1-.5-.3-1-.6-1.5-.9l-1-.5c-1.4-.8-2.9-1.6-4.5-2.3-.5-.2-.8-.4-.5-1.3.4-1.2.7-2.5,1-3.8.9-3.3,1.8-6.8,3.4-9.9,2.6-5.2,5.8-8.9,10.1-11.4,1.2-.7,2.4-1.5,3.6-2.2,2-1.3,4.1-2.6,6.3-3.6,3.6-1.6,8.1-3.5,12.5-4.3,5.2-.9,10.7-.7,15.4-.5,2.8.2,5.8.8,8.6,1.4,1.2.3,2.5.5,3.7.7,1.5.3,3,.6,4.6.9h.1c1,.2,2,.4,3,.6h.6c2.2.5,4.4,1,6.6,1.4.2.6.3,1.2.5,1.7.1.4.2.7.4,1.1.4,1.1.7,2.3,1.3,3.5,2,3.7,3.7,6.5,5.3,9,1.7,2.5,3.5,5.3,5.9,7.7,1.4,1.4,3,2.7,4.5,3.9,1.4,1.1,2.9,2.3,4.1,3.5,4.5,4.5,10.1,8,17.4,10.9,4.4,1.7,19.8,7.1,32.3,4.6.2,0,.5-.1.7-.3,2-1.4,7.1-6.2,7.7-7.5.7-1.6,1.4-3.2,2.1-4.8.7-1.7,1.5-3.4,2.2-5.1.5-1.2.7-2.6.9-3.7.1-.8.2-1.6.3-2.4.1-1.3.2-2.6.6-3.7.9-3,1-6.1.2-9.5-.5-2.3-1.3-4.6-2-6.8-.3-1-.7-2-1-3.1-1-3.2-3.2-5.8-6.3-7.5-2.3-1.2-4.7-2.4-7-3.4-1.8-.8-3.6-1.7-5.4-2.6-3.4-1.7-6.8-1.3-9.8-.9-.5,0-1,.1-1.5.2-2.2.2-4.2.9-6.3,1.7-.9.3-1.9.6-2.8.9-.5.2-.9.5-1.1,1-.4.7-3.9,4.9-5.1,6.1-.3.3-.5.8-.5,1.2,0,1-.1,2-.2,2.9-.2,2-.5,4,.1,6,0,0-.2-.1-.3-.2-.9-.6-1.9-1.1-3.1-1.5-.6-.2-1.2-.4-1.8-.6-.5-.1-1-.3-1.4-.4-1.4-.6-2.8-1.1-4.2-1.7h-.2c-2.5-1.1-5.1-2.2-7.6-3.1-1.1-.4-2.2-.6-3.2-.8-.8-.1-1.6-.3-2.3-.5-1.8-.6-3.6-1.3-5.3-1.9-.7-.3-1.3-.5-2-.8-.2-.3-.5-.7-.6-1-.6-1.7-1.1-3.6-1.5-5.5-.7-3.2-1.4-6.4-3.2-9.4,0,0,0,0,0-.1-.1-1-.2-1.9-.3-2.9-.3-2.5-.5-5.1-1.6-7.6,0,0,0-.2,0-.3,0-.2,0-.4,0-.6,0-1.1,0-2.1,0-3.2,0-2.1-.1-4.6-.3-6.9v-.8c-.3-4.9-.6-9.9,1.2-14.5,1.2-3,2.2-6,3.1-8.7.5-1.5.9-3,1.3-4.4.4-1.5.8-3.1,1.3-4.6.7-2.1,1.6-4.3,2.6-6.5l.6-1.3c1.1-2.3,2.2-4.7,3.6-6.7,1-1.3,1.9-2.8,2.5-4.9.3-1.1,1.1-2.3,1.9-3.5.3-.4.8-.9,1.3-1.4.2-.2.4-.4.6-.6.5-.5,1.1-1,1.6-1.5h.2c1.1.6,2.7,2.1,2.9,2.6.2.5.5.9,1,1.1,1.8.7,3.5,1.7,5.1,2.7l1,.6c1,.6,2,1.1,3,1.6h.1c.5.3,1,.6,1.5.8h.1c3.3,1.4,8.6,4.3,9.7,5.2.2.3.5.6.9.8l9.7,3.9c.3.1.5.1.8.1.2.1.4.3.6.4.2.4.5.7.9.9l3.9,1.7c1.2.5,2.3,1,3.5,1.5.1,0,.3,0,.4.1.3.3.6.5.8.7.3.2.6.4.9.4l3.9.6c3.8.6,7.7,1.2,11.5,1.7,1.8.2,3.2.2,4.4,0,1.9-.4,3.9-1,5.8-1.5,2.2-.6,4.5-1.2,6.8-1.7,1.4-.3,2.8-.4,4.6-.5.9,0,1.9-.1,3-.2h.3s.2-.1.2-.1c.9-.4,1.8-.8,2.7-1.2h.3c3-1.4,6.4-2.9,9.7-4.5.5-.2,1-.4,1.5-.7,2.2-.9,4.7-2,6.4-4.3,1.3-1.8,3-2.7,5-2.9.5,0,.9-.3,1.2-.7l3.9-4.9c2.7-1.8,5.9-7.4,8.7-12.7.2-.4.4-.8.5-1,.1-.2.2-.4.3-.6.4-1.4.8-2.7,1.2-4.1,1.6-5.5,3.2-11.2,3.5-17.2.3-5.5-1-10.6-2.4-15.9ZM458.9,277.8c4.4-.5,8.9-1,13.3-1.3,2.3-.2,4.7.2,6.5.6,1.3.2,5.2,1,6.8-2.9.3-.7.2-1.3.2-1.8,0,0,0-.2,0-.3,0-.8-.6-1.6-1.4-1.7,0,0,0,0-.1,0-1.6-1.1-4.5-1.9-7-2.6-1-.3-1.8-.5-2.4-.7-.4-.2-.9-.1-1.3,0-.5.2-.9.4-1.2.6-.8-.2-1.6-.5-2.5-.7-2-.5-4-1.1-5.5-1.9-1.7-1-3.2-2.5-4.8-4-.5-.5-1.1-1.1-1.6-1.6-.7-.7-1.4-1.4-2-2.2-.3-.3-.5-.6-.8-.9-.4-.6-.7-1.1-1.1-1.7-.8-1.2-1.6-2.4-2.1-3.6-1.3-3-2.1-5.6-2.5-8.1-.5-3.3-.3-6.3.5-9.3.3-1.1.9-2.3,1.4-3.4l1.1-2.4c.8-1.9,1.7-3.8,2.7-5.6.6-1,1.5-2,2.4-2.6.5-.3,1.1-.7,1.6-1,2.1-1.4,3.9-2.6,6.3-2.9,5-.8,10.1-1.7,15-2.7,1.2-.2,2.5-.5,3.7-.7,1-.2,1.9-.5,2.6-.7.2,0,.4-.1.6-.2,9.7-.2,17.8,4.1,25.2,8.7l.9,1.2c.8,1,1.7,2.1,2.5,3.2.8,1.1,1.5,2.2,2.3,3.2h0c.3.5.6,1,.9,1.4.1.3.3.6.6.9,1.9,2.7,2.8,3.6,3.2,4,.3.4.5.7.8,1.1.5.7,1.1,1.5,1.6,2.2l.2.3c.9,1.3,1.7,2.6,2.4,4,.5.9.8,2,1.1,3.1l.3.8c.4,1.3.8,2.6,1.2,3.8,1.1,3.4,2.2,6.9,3.2,10.3.8,2.7.4,5.6-.2,8.3-.3,1.7-.7,3.4-1,5.4v.4c-.3,1.4-.6,3-1,4.7-.2.3-.3.8-.6,1.6-1.6,4-5.3,13.2-10.3,17.7h0c-.3.1-.9.4-1.3,1-1.2,2-3.3,3.1-5.5,4.3-.6.3-1.1.6-1.6.9-.5.3-.8.8-1,1h0c0,0,0,.1,0,.2-.2.2-.3.4-.3.7-.5.5-1.7,1.6-2.4,2h0c-.2,0-.4,0-.6.1-2.1.7-4.7,1.6-5.9,1.9-1.6.4-3.1.8-4.7,1.3-1,.3-2,.6-3,.9-.4.1-.9.2-1.4.3-.5,0-1.2.2-1.9.4-1.5.4-2.9.9-4.5,1.4l-1.6.5c-.2,0-.4.2-.5.3-.7.2-2.6.3-3.7.4-2.6.2-5.2.5-6.9,1l-4.8-1.8c-.2,0-.4-.1-.6-.1h-.3s-.2,0-.2,0c-3.2,1.1-6.2.4-9.7-.4h-.4c-2.3-.6-4.5-1.9-6.6-3.1-1.9-1.1-3.8-2.2-6-2.9-2.8-.9-14.5-6.5-17.3-8.8-1.9-1.5-4.1-2.5-6.2-3.4-.7-.3-1.5-.7-2.2-1l-1.1-1.5c-.3-.4-.7-.7-1.2-.7-.1,0-.3,0-.4,0-.2-.1-.3-.3-.5-.5.1-.1.2-.2.4-.4,1-1,2-2,3.1-2.7,1.7-1.1,3.5-2,5.4-2.9.8-.4,1.5-.8,2.3-1.2.3-.1.5-.2.8-.3,1.2-.3,2.3-.6,3.5-.9,1.8-.5,3.7-1,5.5-1.5,1.3-.4,2.6-.8,4.1-1.4,4.3-1.8,9-2.4,13.4-2.9,1.5-.2,3.1-.3,4.7-.5ZM326.1,176.6c3.4,2.8,7.4,3.5,11.2,4.2,1.3.2,2.7.5,4,.8,2.3,2.1,8.1,3.2,11.4,2.9l7.4.9c.2,0,.5,0,.7,0,.3,0,1.2,0,2.2,0,0,0,0,.2,0,.2,0,1,0,2.1-.2,3.1,0,.8-.1,1.6-.1,2.3,0,.5,0,1,0,1.6,0,.5,0,1,0,1.3,0,.5-.1.9-.2,1.5-.2,1.1-.4,2.2-.4,3.4-.1,3.7-.3,7.7-.2,11.6,0,1.4.3,2.7.7,4,.1.4.2.9.3,1.3.3,1.3.5,2.5.8,3.8.6,2.9,1.1,5.9,2,8.8.4,1.3.7,2.6,1.1,3.9.9,3.6,1.9,7.4,4.1,10.8.3.4.4,1,.6,1.6.2.6.4,1.4.8,2.1.6,1.1,1.2,2.1,1.9,3.1.6,1,1.3,2,1.8,3,.6,1,1.1,2.1,1.6,3.2.7,1.6,1.5,3.2,2.5,4.8,1.5,2.4,3.3,4.5,5.1,6.6l.2.3c.2.3.3.5.5.8.4.8.9,1.6,1.6,2.4,1.6,2.1,3.3,4.2,4.9,6.2l1.5,1.9c0,.1.2.2.3.3h0c.4.7.8,1.4,1.1,2,.9,1.6,1.8,3.2,2.9,4.6,1.3,1.7,3,3.1,4.7,4.4l.4.3c.5.4.7.6.7,1-.5.3-1,.7-1.6,1-.4.3-.7.6-.8,1.1-.5.5-1,1.1-1.6,1.6-3,2.7-4.5,6.2-5.6,9.2-.1.3-.2.7-.3,1,0,.1,0,.3-.1.4-1.6,1.5-2.2,3.4-2.8,5-.2.6-.4,1.2-.6,1.7-.8,1.9-1.7,3.8-2.5,5.6v.2c-.7,1.3-1.2,2.5-1.8,3.8l-.2.3c-.4.8-.9,1.9-.6,3.1.3,1.1,0,2.1-.6,3.4-.2.5-.4,1.1-.6,1.6-.3.9-.5,1.8-.7,2.7-.7,2.7-1.5,5.5-2.6,8-2,4.2-2,8.3-1.9,12.1,0,1.5.2,3,.4,4.4.1,1,.3,2,.3,3,0,.3,0,.8-.1,1.2,0,.6-.2,1.4-.1,2.1l.2,2.1c.3,3.2.6,6.6,1.2,9.8.4,2,1.1,3.9,1.8,5.8.3.8.6,1.6.9,2.4v.4c.4.7.6,1.3.8,2,.3,1.2.6,2.4,1,3.7l.3,1.1c-.9-.1-1.7-.3-2.6-.4-2.2-.4-4.3-.7-6.4-1.1-2.1-.4-4.3-.8-6.5-1.2-1.2-.2-2.4-.5-3.6-.7h-.3c-.3-.1-.7-.2-1.2-.3-1.7,0-3.3-.1-5-.2h-.1c-4.2-.2-8.6-.3-12.9-.2-2,0-3.8.8-5.6,1.5-.6.2-1.2.5-1.9.7l-1.4.5c-2,.7-4.1,1.4-6.2,1.9h-.3c0,0-6.2,3.3-6.2,3.3-.1,0-.2,0-.3,0-.5,0-1,0-1.4.4-1.6,1.4-3.4,2.8-5.1,4.1-4.3,3.3-8.8,6.7-11.6,12.2-.1.2-.2.5-.2.7v2c-2.5,2.4-3.2,5.4-3.6,8.1-.2,1.5-.9,3-1.6,4.6-.1.2-.2.5-.3.8-.6-.3-1.3-.6-2-.8-1-.3-2-.6-3-.8h-.5c-4.3-1.4-8.8-2.7-13.4-3.7-4.6-1-9.4-1.8-14-2.5l-1.5-.2c-5.7-.9-11.1-1.6-16.2-2.2-1.6-.2-3.2-.2-4.8-.3-1,0-2,0-3-.1-1.4,0-2.8-.2-4.4-.2-2.4,0-4.5.2-6.5.7-.2,0-.3,0-.3,0-2.3-.8-4.4-.2-6.3.2-.9.2-1.8.4-2.6.5-.4,0-.8,0-1.3,0-.6,0-1.3,0-1.9,0-1.1.1-2.3.3-3.4.4-1.5.2-3.1.4-4.7.5-.4,0-.8,0-1.2.2-.7.1-.9.1-1.2,0,0-1.7-.4-4.8-1.2-10.2-.2-1.6-.6-3.7-.6-4.3,0-.2,0-.4,0-.6-.2-1.1-.4-2.2-.6-3.3-.4-2.2-.8-4.3-1.2-6.4l-.4-1.8c-.5-2.5-1-5-1.7-7.5-.6-2-1.4-4-2.1-6-.4-1-.8-2-1.1-3-.7-1.9-1.3-3.8-2-5.8l-.7-1.9v-.2c-.2-.3-.4-.5-.5-.9-.3-.6-.7-1.4-1.1-2.1-.4-.9-.8-1.9-1.2-2.8-.7-1.8-1.5-3.7-2.5-5.5-1.8-3-3.7-5.9-5.6-8.7-.8-1.2-1.7-2.5-2.5-3.7-1.2-1.9-2.4-3.7-3.6-5.6-.3-.5-.6-1-.9-1.5-.6-1.1-1.3-2.2-2.2-3.3-1.6-2-3.3-3.9-5-5.7h-.1c-1.3-1.6-2.7-3.1-4-4.7-.3-.3-.5-.9-.8-1.5,0,0,0,0,0,0,.7-.6,1.4-1.2,2.1-1.8,2.5-2.2,4.9-4.2,7.3-6.4,1.4-1.3,2.5-2.7,3.7-4h0c.5-.7.9-1.2,1.4-1.8.4-.5.5-1.1.4-1.6,0,0,0,0,0-.1,0,0,0,0,0-.1.4,0,.8-.3,1.1-.7,1.5-2.1,2.9-4.2,4.8-7,.2-.2.3-.5.3-.8.7-5.1,4.9-9.5,9-13.8.4-.4.6-1,.4-1.6,0-.4.3-1.5.5-1.9.3-.2.5-.5.6-.8.7-1.7,1.2-3.1,1.5-3.5.2-.2.3-.4.4-.6l1.2-3c.6-1.5,1.1-2.8,1.6-4.2h0c.2-.7.5-1.6.4-2.5-.5-3.3.7-6.3,2-9.5.3-.7.6-1.5.9-2.2.1-.4.4-1.2.1-2.1,0-.6,0-1.2,0-1.8,0-1.4,0-2.9,0-4.4.2-3,.5-6.1.8-9.1l.2-2.1c.4-4.2-.5-8.2-1.3-12.1l-.2-.9c-.8-3.7-1.9-7.2-3.4-11.4-.4-1.1-1.1-2-1.8-2.8-.3-.4-.6-.7-.8-1.1-2.2-3.3-4.4-6.5-6.6-9.9l-2.2-3.3c2.1-.8,3.9-1.3,5.8-1.6,2.6-.4,5.1-1.3,7.6-2.2.5-.2.9-.3,1.4-.5,3.9-1.4,7.8-2.8,11.5-4.3,1.2-.5,2.4-1.1,3.5-1.7.6-.3,1.1-.6,1.7-.9,1-.5,2-1,3-1.5l1.3-.6c0,0,.2,0,.2-.1.4-.1.9-.4,1.3-.8,2.1-2.2,4.8-3.7,7.4-5.2,1.3-.7,2.6-1.5,3.8-2.3,1.3-.9,2.8-1.5,4.1-2.1.6-.3,1.1-.5,1.6-.7h.2c0-.1.1-.2.1-.2.8-.7,1.5-1.3,2.3-1.9,1.6-1.3,3.1-2.5,4.3-4,1.5-1.8,2.8-3.9,4-5.8.5-.8.9-1.5,1.4-2.3.2-.3.3-.6.4-.9,0,0,0,0,0-.1.6-.8,1.3-1.6,2-2.4,1.5-1.8,3-3.6,4.2-5.6,2.3-3.8,4.9-7.9,6.3-9.8l15.3,14.4c.3.3.7.4,1.1.5l4.4,3.3c.1.2.5.6.7.9,1.1,1.5,2.8,3.8,4.5,4.8,1.8,1,3.5,2.4,5.1,3.7,1.3,1,2.7,2.1,4.2,3.1,1.3.9,2.7,1.4,4.2,2,.6.2,1.2.5,1.8.7.2,0,.3.2.5.3.6.4,1.5,1,2.4,1.3,2,.8,3.9,1.4,5.9,2.1.7.3,1.5.5,2.3.8,0,0,0,0,0,0,.2.1.6.4.9.6,0,.4.3.8.6,1.1ZM350.2,474.5c1.1-.4,2.4-.9,4.1-1.5.7-.3,1.1-.9,1.1-1.6v-5.2c0-.4-.1-.8-.4-1.1-1-1.3-2-2.5-2.9-3.8,0-.2,0-.3,0-.5,0-.7-.1-1.5-.3-2.3-1.6-5.1,1.6-13,7.6-14.9l.6-.2c.7-.2,1.4-.5,2-.5,1.7,0,3.5,0,5.1-.1,2.8,0,5.6,0,8.4-.3,1.9-.2,3.2.4,4.6,2,.9,1,2.2,1.4,3.4,1.7h0c.4.4.8.7,1.1,1.1,1.1,1,2.2,2.1,3.4,3.1,5.3,4.1,8.7,9.6,10.6,16.9.7,2.9,1.4,5.7,2.1,8.8.2,1,.5,2.1.7,3.1-1.1,2.8-.2,5.2.5,6.9,0,.2.2.4.2.6l-.6,2.9c-.5,2.4-1,4.5-1.4,6.7,0,.2,0,.5,0,.7,0,.3-.2.9-.4,1.1h0c-3.3,2.7-6.7,5.5-9.6,7.8-1.1.5-2.2.9-3.2,1.3-1.1.5-2.2.9-3.3,1.3-.6.2-1.3.5-1.9.8-1.3.6-2.7,1.2-4.1,1.5-.9.2-1.8.4-2.7.5-3.2.7-6.5,1.4-9.7.5-.3,0-.5-.1-.8-.1s-.5,0-.8,0c-4.2,1-7.8-1-11.6-3.2l-.3-.2c-1.6-.9-3.2-2.2-4.8-3.5-.8-.6-1.6-1.3-2.5-1.9-.6-.4-1.1-.7-1.7-1-.2-.1-.4-.2-.6-.3-.2-.1-.5-.2-.8-.3,0,0-.2,0-.3-.1-1.1-2.1-3-3-4.6-3.7-1.1-.5-2-.9-2.6-1.7l-1.6-1.9c-1.3-1.5-2.6-3.1-3.9-4.7-.9-1.1-1.9-2.1-2.8-3.2-1.8-2-3.7-4-5.3-6.2-3.4-4.5-5.8-9.7-7.2-15.2-.9-3.5-1.7-7.1-2.3-10.7-.4-2.2-.7-4.5-1-6.7-.2-1.3-.3-2.7-.5-4,0-.5-.2-1-.4-1.5,0-.2,0-.3-.1-.4,4.7,1.8,8.7,4.3,12.3,7.6.3.3.8.5,1.2.5,1.5,0,2.7.6,3.9,1.9.7.7,1.4,1.3,2.1,1.8.5.4,1,.8,1.5,1.2.4.4.7.8,1.1,1.4.4.5.8,1,1.2,1.6,1,1.1,2,2.1,3.1,3.2.4.4.7.7,1.1,1.1h0c0,.5.2,1.1.4,1.8.1.7.7,1.2,1.4,1.4,1.6.3,2.2,1.4,3.1,3.4.5,1.1,1.1,2.4,2,3.5.3.3.7.5,1.1.6.8,0,1.6.1,2.4.2.3.4.7.8,1.3,1.4.5.5,1.3.7,1.9.5ZM199.5,458.3c-.2.9-.5,1.9-.7,2.8-.8,3.2-1.6,6.5-2.9,10.8-.1.3-.4.8-.7,1.2-.2.3-.4.5-.5.8h0c-.7,1.3-1.6,2.7-2.1,4.3l-4,4.9c-.3.4-.5.9-.4,1.5l.4,1.8c.2,1.1.4,2.1.7,3.2.5,2.1,2.1,3.2,4.2,3,.7,0,1.4-.3,2.1-.4.3,0,.5-.1.8-.2.5-.1.9-.4,1.2-.9,2.7-5,7.6-7.1,12.8-9l3,.5h.3s.2,0,.2,0c.7,0,1.3-.2,1.8-.3,1-.2,1.9-.3,2.7-.4.5,0,.9-.1,1.4-.2h.1c1.4-.2,2.9-.4,4.2-.3,1.2.1,2.5.1,3.6.2,4,.1,7.7.3,10.9,2.6.8.6,1.6.8,2.4,1.1.4.1.8.2,1,.3,3,1.4,5.7,3.7,8.5,7.1.5.7,1.2,1.1,1.8,1.5,0,0,.1,0,.2.1.3.7.7,1.4,1.1,2.2.9,1.8,1.8,3.7,2.5,5.5l.4,1.1c1.5,4.1,3.1,8.4,3.3,12.8,0,1.5,0,3,0,4.6,0,1.6,0,3.3,0,5,0,1.3-.9,9.4-1.4,10.9l-.3.7c-.2.5-.5,1-.7,1.5-.2.3-.2.6-.2.9-.3,1.3-2,5.6-2.8,6.4-.3.2-.6.5-.8.8-.4.5-1.9,1.7-2.4,2.2-.9.7-1.3,1.1-1.5,1.3-.8.6-1.6,1.2-2.5,1.9-2,1.6-3.9,3-6,4.3-1.8,1.1-4,2.1-6.8,3.1-.9.3-1.9.6-2.8.8-2.3.6-4.7,1.3-7,2.8-.1,0-.5.2-1.3.2-3,0-6.3-.2-9.4-1.8-2-1.1-4.1-1.6-6.3-2.1-.9-.2-1.8-.5-2.7-.7-1.2-.4-2.4-.7-3.6-1-2.6-.6-5.2-1.3-7.3-2.6-5.1-3.1-10.3-6.7-14.4-11.8-.8-.9-1.7-1.6-2.6-2.3-.3-.2-.6-.4-.8-.6-.5-.9-1-1.9-1.5-2.8v-.2c-1.5-2.5-2.9-5-4.4-7.5-2.4-3.7-3.8-8-5.1-12.1h0c-.6-1.9-1.5-3.5-2.3-4.7-1.8-4.4-2.2-8.5-1.4-12.8.3-1.8.4-3.6.4-5.3,0-1.1,0-2.2.2-3.3.2-2.1.5-3.9,1-5.6.5-2,1.1-4,1.7-5.9.3-.9.6-1.8.9-2.8.1-.5.3-1,.4-1.5.2-.7.4-1.4.6-2.1.5-1.4.9-2.7,1.4-4.1,1.1-3.4,2.3-6.9,3.7-10.2,1.7-3.9,4.2-8.8,8.4-12.4.8-.7,1.7-1.4,2.5-2.2h.1c2.2-2,4.4-4,6.8-5.7,1.5-1.1,3.2-2,5-2.9.8-.4,1.7-.9,2.5-1.3.5-.3.9-.5,1.4-.8.2-.1.4-.2.6-.3,1.1-.3,3.2-1.2,4.8-1.9,0,.8-.1,1.8-.2,2.4,0,.5-.1.9-.2,1.4-1.4,4.9-1.7,9.8-1.9,14.1-.1,2.8-.9,5.8-1.6,8.7ZM188.8,64.6c.2-.2.3-.5.3-.8.4-3.6,2.3-6.8,6.1-10.2.1-.1.2-.2.4-.3.4-.3.9-.7,1.3-1.3,2.6-3.8,6.5-5.9,10.7-7.8.7-.3,1.4-.7,2-1h.2c.5-.3.9-.4,1.4-.6.8-.3,1.5-.5,2.2-.6.8-.2,1.7-.3,2.5-.5,2.4-.5,4.9-1,7.2-1.1,1.5,0,3.3.4,5,.7.9.2,1.8.4,2.7.6.8.1,1.5.2,2.3.3,1.3.2,2.7.4,3.9.7,2.3.6,4.9,1.4,7.1,2.7,3,1.7,5.9,3.8,8.3,5.6,1.3,1,2.5,2.3,3.7,3.6l.8.9c.8.9,1.6,1.9,2.5,3.3l.3.5c.9,1.4,1.7,2.9,2.6,4.3.3.5.6,1,1,1.6.7,1.2,1.5,2.4,2,3.6.8,1.9,1.4,4,2,6.4.8,2.9,1.5,6,2.4,10,.4,1.8.4,5.8.4,6.5v.2c0,1.2,0,2.3,0,3.5,0,2.3,0,4.7,0,7,0,3.2-.6,8.6-.8,9.6-.1.3-.2.7-.1,1,0,.3-.2.9-.4,1.4-.4,1.2-.9,2.7-.9,4.2h0c0,0,0,.1,0,.1,0,.9,0,1.7.1,2.5-.6-.6-1.1-1.2-1.7-1.9-2.1-2.3-4.3-4.8-6.4-7.3-1.2-1.5-2.6-2.7-3.9-3.9-1.4-1.3-2.9-2.6-4-4.1-.3-.4-.6-1-.9-1.6-.2-.5-.5-1-.8-1.5-1.3-2.4-2.9-4.8-4.4-7.1-1.7-2.6-3.5-5.3-4.9-8-1.1-2.1-2.1-4.4-3-6.4v-.2c-.6-1.1-1.1-2.2-1.6-3.4-.3-.6-.6-1-.8-1.4v-.2c-.4-.4-.7-.6-1.2-.7-1.1-.3-2.1-.5-3.1-.8l-1.1-.3c-.4-.1-.9,0-1.2.2-2.7,1.4-3.1,2.7-3.2,5.8,0,.5.2,1.1.7,1.4,1.8,1.4,2.5,3.6,3.3,6.1.5,1.4.9,2.9,1.7,4.4.3,1.3.5,2.4.9,4.3,0,.1-.2.4-.3.5-.1.1-.2.3-.3.5l-.8,1c-.6.8-1.3,1.5-1.9,2.3-.6.8-1.1,1.6-1.5,2.3-.7,1.3-1.4,2.4-2.8,3.4l-7.9,2.1c-.1,0-.2,0-.3,0-4,0-7.5-.6-10.5-1.9-1.6-.7-3.1-2.3-4.5-3.7l-.2-.2c-2.2-2.2-4.1-4.7-6-7-.5-.6-1-1.4-1.4-2.2-.4-.6-.7-1.2-1.1-1.7-.8-1.2-1.7-2.3-2.6-3.6l-.8-1.1c-.2-.8-.3-1.7-.5-2.5h0c-.4-2.5-.8-4.9-1.5-7.3-1.2-4.2-.7-7.7,1.5-10.9ZM187.4,83h0s0,0,0,0ZM417.7,160.8c-.3.3-.5.7-.9,1.2l-.3.4-.7.2c-.5.1-.9.5-1.1.9-.3.2-.9.6-1.6,1-.2,0-.3.2-.5.3-.7.5-4.3,2.6-6.8,3.9-1.9,1-3.7,2-5.5,3l-1.2.6h-3.4c-.6,0-1.1.3-1.5.8,0,0,0,.1-.1.2-.5.3-1.7.7-3.3,1.1-.6.1-1,.5-1.2,1.1-.5,1.4-5,2.2-6.8,2.5-1.5.3-2.5.4-3.2.8-1.7.9-3.6,1.2-5.8,1,0,0,0,0,0,0,.6-1,1.2-2.1,1.9-3.1.8-1.3,1.6-2.6,2.3-3.9,1.5-2.7,3-5.7,4.3-8.8.8-2,2.1-3.5,3.6-5.3l.5-.5c1.4-1.6,2.6-3.2,3.9-4.8.8-1,1.5-2,2.3-3,.4-.5,1-1.2,1.6-1.6.9-.6,2-1.1,3-1.6.6-.3,1.2-.6,1.7-.9,2.3-1.2,3.3-3.2,4.1-6.1.1-.4,0-.8-.1-1.2l-.9-2c-.2-.4-.5-.7-.9-.9-.7-.3-1.4-.6-2.1-.9-.4-.2-.8-.2-1.2,0l-2.3.7c-.4.1-.8.4-1,.8-1,1.9-1.9,2.5-3.1,2.4-.4,0-.9,0-1.2.3,0,0-.3,0-.5.1-.3,0-.6.1-1,.3h-2.8c-.3-.2-.7-.3-1-.5-.9-.4-1.6-.7-2.1-1.1-6-5.5-9.7-10.7-8.1-18.5.1-.6.2-1.3.3-1.9.1-1.1.2-2,.6-2.6,1.7-2.8,3.9-5.4,6-8l.5-.6c.9-1.1,1.9-2.1,3.1-2.9l1.1-.8c2.4-1.8,4.9-3.6,7.5-5,2.1-1.2,4.2-1.3,6.3-.3,1.3.6,2.6,1.2,3.9,1.8,1.9.9,3.9,1.7,5.8,2.7.9.5,1.8,1.2,2.5,1.7.3.2.5.4.7.6.8.9,1.7,1.8,2.5,2.6,1.8,1.8,3.4,3.5,4.7,5.3,1.2,1.7,1.9,3.8,2.6,5.9.1.4.3.9.4,1.3.4,1.1.7,2.3,1,3.4.3,1.2.6,2.4,1,3.6,1,2.7,2.1,5.9,1.9,9.1,0,.6,0,1.3,0,2.1,0,.6,0,1.9,0,2.4h0c-.3.7-.5,1.4-.8,2.2-.7,1.7-1.4,3.4-1.8,5.2-1.2,5.1-3.5,9.4-6.8,13.3ZM90.3,185c-.3-.1-.6-.2-1-.4-2-.8-4.3-1.7-6.9-1.4-3.4.4-4.7,1.9-4.7,5.2,0,.5.2,1,.6,1.3,3.3,2.7,7,3.9,10.6,5.1l1.1.4c4.3,1.4,7.9,3.9,10.5,7.3.5.6,1,1.2,1.5,1.8,1.1,1.4,2.3,2.9,3.3,4.4.4.7.8,1.5,1.1,2.5.2.5.4,1,.6,1.6v9.2c-.1.3-.3.6-.4,1-.3.8-.6,1.5-.9,2-.5.7-1.1,1.5-1.7,2.2-.3.4-.6.8-.9,1.2l-.2.2c-.4.5-.8,1-1.2,1.6-2.1,3.3-4.7,5.2-8.2,6-1.6.4-3.2.8-4.7,1.2-1.3.3-2.6.7-3.9,1-.7.2-1.2.1-1.4,0-7.2-2.3-13-4.7-18-7.6-.7-.4-1.3-1-2.1-1.7-.4-.4-.9-.8-1.4-1.3-.2-.2-.5-.3-.8-.4-2.5-.4-4.6-2.6-6.2-4.4-.9-1-1.7-2.1-2.4-3.2-1.1-1.5-2.2-3.1-3.6-4.4-2.6-2.6-4.2-6-5.8-9.3-.4-.8-.7-1.5-1.1-2.3-1-2.1-1.5-4.6-1.9-7-.1-.8-.3-1.5-.4-2.3-.2-1-.3-2.1-.4-3.2-.1-1.1-.2-2.3-.5-3.5-.5-2.1.2-4.2.8-6.5.3-1,.6-1.9.8-3,.7-3.6,1.8-7.4,3.2-11.3,1.1-3.2,3.3-5.6,6.6-7,1-.4,1.6-1.1,2.2-1.8.3-.4.7-.7,1-.9,1.7-1,3.5-1.9,5.2-2.8h.1c.6-.4,1.2-.7,1.7-1,.6-.3,1.3-.7,2-1,1.3-.6,2.6-1.3,3.9-2.1,1.6-1,2.7-1.3,3.8-1.3s.7,0,1,.1c1,.2,2,0,2.8-.3.4-.1.7-.2,1-.2,3.2-.2,6.4-.4,9.4-.5,6.6-.2,13.4,0,20.7,1,.9.1,1.9.5,2.9.9.4.2.9.3,1.3.5l2.2.8c2.3.8,4.7,1.6,7,2.5,1.1.4,2.2.9,3.4,1.5,1.3.6,2.6,1.2,3.9,1.7,3.3,1.2,6.5,2.8,9.6,4.3h.2c1.1.6,2.1,1.1,3.2,1.6,3.3,1.6,6.4,3.8,9.4,5.9,1.1.8,2.2,1.6,3.3,2.3,4.6,3.2,9.5,6.4,13.7,10.2,1.1,1,2.3,1.9,3.4,2.8,2.1,1.6,4.2,3.2,5.7,5.4.3.4.6.8.9,1.1-.2,0-.4,0-.7.1-7.5,1-15.2,1-22.6,1h-2.8c-1.6,0-3.3.1-4.9.2-1.5,0-3.1.2-4.6.2s-3.8-.1-5.7-.2c-1.4,0-2.9-.2-4.3-.2-1.2,0-2.5,0-3.6,0-1.7,0-3.4,0-5,0-2.9-.2-5.8-.6-8.6-1h-.2c-1.2-.2-2.3-.3-3.5-.5-.4,0-.8,0-1.3-.1h-.1c-1.1-.1-2.3-.3-3.4-.5-3.3-.7-6.6-2-9.7-3.3-1.3-.5-2.6-1.1-4-1.6ZM141,332.4c-.7.4-1.5.9-2.2,1.1-1.1.4-2.3.7-3.5,1-.8.2-1.6.4-2.4.6-.7.2-1.4.6-1.9.9l-.3.2c-.8.4-1.6.8-2.3,1.2l-.4.2c-1.7.9-3.5,1.8-5.2,2.7,0,0-.1,0-.2,0,0,0,0,0-.1,0-.3,0-.7,0-1.1.1-.2,0-.5.1-.7.2-.9.2-2,.4-2.9,1.1-3,2.5-6.5,3.2-11,3.6-1.4.1-2.8.3-4.1.4-1.3.2-2.7.3-4.1.4-.7,0-1.4,0-2-.1-.4,0-.7,0-1.1-.1h0s0,0,0,0c-3.2,0-8.2,3.5-8.3,5.9,0,.3,0,.6.2.9l1.7,3.1c.1.2.3.4.6.6l3.6,2.5c.5.3.9.3,1.1.3,3,0,5.7-1.4,7.5-3.8,2.7,0,5.4.2,8.8.9,2.9.5,5.5,1.8,8.1,3.1,1.6.8,3.2,1.6,5,2.3,0,0,.1,0,.2.1.8.8,1.7,1.6,2.5,2.4,2.8,2.6,5.6,5.3,7.8,8.4.5.8,1,1.7,1.4,2.7.3.6.6,1.3.9,1.9.4.8.9,1.6,1.4,2.4,0,.1.1.2.2.3-.3,8.6-.7,16.4-1.1,17.9-.1.1-.2.3-.2.5-.3,1-.7,2.2-1.1,3.4l-.4,1.3c-1.8.7-2.3,2.5-2.7,3.7-.2.7-.5,1.4-.8,1.8-.4.3-.7.9-.6,1.4.1,2.4-1.3,4.3-4.5,6-5.2,2.8-10.9,5.2-16.4,7.5h-.3c-.6.4-1.5.4-2.4.3-.5,0-1,0-1.4,0,0,0,0,0-.2,0-.4,0-1-.2-1.6,0-2.8.7-5.7,0-8.6-.7l-.7-.2c-2-.5-4.1-1.3-6.1-2-2.1-.8-4.3-1.6-6.6-2.2-3.1-.8-5.9-2.5-8.6-4.2-1.2-.7-2.6-1.6-3.9-2.3-2.4-1.3-5.1-2.8-6.3-5.4-.3-.7-.9-1.2-1.4-1.5-3.9-3-7.6-6-10.2-10.2-.3-.4-.6-.8-.9-1.1-.2-.2-.4-.4-.5-.6-.1-.3-.2-.5-.3-.8v-.2c-.4-.8-.7-1.5-1-2.3-.2-.6-.3-1.2-.4-1.9,0-.5-.2-1-.3-1.5l-.6-2.4c-.7-2.8-1.3-5.6-2.1-8.4-.3-1.2-.7-2.5-1.1-3.6-.6-1.9-1.2-3.8-1.5-5.7-.2-1-.4-2-.6-3-.6-2.4-1.2-4.6-.1-6.9.5-1.1.6-2.3.7-3.4,0-.7,0-1.3.2-1.9l.3-1.1c1.1-3.7,2.2-7.5,3.7-11,.4-.9,1.3-1.7,2.2-2.6.5-.5,1.1-1,1.5-1.6.7-.8,1.4-1.6,2.1-2.4l.2-.2c1-1.2,2.1-2.5,3.2-3.7,1-1.1,2.1-2.2,3.1-3.1.7-.6,1.3-1.2,2-1.9h.1c1.7-1.8,3.5-3.5,5.4-4.8,1.5-1.1,3.4-1.9,5.2-2.6h.2c.6-.3,1.1-.5,1.6-.8.5-.2.9-.5,1.4-.7.9-.5,1.9-1,2.5-1s0,0,.1,0c3.9.8,7-.6,9.8-1.8,1-.5,2.1-.9,3.2-1.3.2,0,.3-.1.4-.2h0c2.3.2,8.1-.6,10-1.1.8,0,2.2.1,6,.3h.6c.9,0,1.8,0,2.7,0,3.1,0,6.2,0,9.2,1.1,1.9.7,4,1,5.9,1.3,2.1.3,4.3.7,6.1,1.5,1.3.6,2.6.8,3.9,1.1,2,.4,3.8.8,5.1,2.1.4.3.8.5,1,.6,0,0,0,0,0,0,.1.2.3.3.5.4l1.3.7c.7.4,1.5.8,2.2,1.2.3.2.6.3,1,.5.6.3,1.3.7,1.9,1.1l.5.3c1.6,1,3.3,2,4.9,3.1.2.1.3.3.5.5-.2.2-.5.3-.7.5-1.7,1.2-3.2,2.3-4.8,3.3-.1,0-.5.1-.7.1-.5,0-1,.2-1.6.4-1.3.6-2.6,1.2-3.8,1.9l-.8.4c-.5.2-.9.5-1.4.8l.7,1.3h0l-.8-1.3ZM439.7,422c.5-.2.8-.7,1-1.2.2,0,.5,0,.7,0,1,0,2.5,0,3.6-1.2.5-.6.6-1.4.3-2-.7-1.2-1.3-2.3-2-3.6-.2-.3-.4-.6-.7-.7-3.2-1.6-5.6-4.7-6.8-8.9-1-3.4-.2-6.4,2.3-8.8.5-.5,1.9-.8,2.7-.9,4.4-.9,8.8-.7,13.1.6.1,0,.3.1.6.2h.1c4.9.3,7.1,3.7,9.7,7.6.5.7.9,1.4,1.4,2.1,2,2.8,2.6,6.2,3,9.2.1,1.1.4,2,.6,2.8,0,0,0,.2,0,.3-.2.7-.5,1.7-.8,2.8-1.4,4.6-4.2,14.3-6.9,16.9-1.8,1.7-2.7,2.3-3.8,2.3-6.4,0-12.7,0-18.6-.6-1.6-.2-3.3-1-5-1.9-.7-.4-1.6-.8-2.4-1.2-.5-.2-.9-.4-1.4-.6-1.4-.6-2.8-1.1-4-1.9-1.7-1-3.3-2.2-5.2-3.5-.9-.6-1.8-1.2-2.7-1.9l-.5-.4c-.6-.6-1.5-1.4-2.3-2.2-.4-.3-.8-.6-1.2-.9-.5-.4-1-.7-1.2-1.1-1.1-2.1-2.8-3.6-4.4-4.9-.8-.7-1.6-1.4-2.3-2.2-.5-.5-.9-1.2-1.3-1.9-.2-.3-.3-.5-.5-.8l-.2-.3c-.9-1.5-1.8-3-3-4.4,0-.3,0-.5,0-.7,0-.3,0-.7-.2-.9-.3-.7-.8-1.2-1.1-1.7-.3-.4-.5-.7-.7-1l3.2,1.1c2.4.8,4.8,1.6,7.2,2.4.1,0,.2,0,.4,0,.7.2,4,1.5,6.4,2.6,0,0,.3.1.6.2.5.1,1.8.5,2.1.7l.3.2h.2c4.2,1.4,7.9,3.9,11.5,6.3,2.1,1.4,4.3,2.9,6.7,4.2.5.3,1.1.3,1.6,0Z"/>
    </g>
  </g>
</svg>